<svg width="32" height="26" viewBox="0 0 32 26" fill="none" xmlns="http://www.w3.org/2000/svg">
<mask id="mask0_738_2145" style="mask-type:alpha" maskUnits="userSpaceOnUse" x="0" y="0" width="32" height="26">
<rect width="31.4286" height="26" fill="#D9D9D9"/>
</mask>
<g mask="url(#mask0_738_2145)">
<path d="M18.2923 6.59949H17.3828V23.577H18.2923V6.59949Z" fill="#261C0E"/>
<path d="M30.6172 16.5394V15.0878H31.4256V16.5394H30.6172ZM30.6172 23.5765V17.2885H31.4256V23.5765H30.6172Z" fill="#261C0E"/>
<path d="M15.1158 15.9211V0.0311279H15.967V23.5192H15.1158V19.3498C14.8717 17.803 14.1393 16.4193 13.0793 15.3616C11.766 14.0496 9.95276 13.2384 7.94889 13.2384C5.94502 13.2384 4.13175 14.0496 2.81847 15.3616C1.50518 16.6736 0.693194 18.4851 0.693194 20.487C0.693194 22.4889 1.50518 24.3004 2.81847 25.6124C4.13175 26.9244 5.94502 27.7356 7.94889 27.7356C9.73475 27.7356 11.3692 27.0913 12.6342 26.0219H13.6498C13.6237 26.0493 13.5963 26.0767 13.5702 26.1028C12.1316 27.5399 10.1447 28.4281 7.94889 28.4281C5.75312 28.4281 3.76622 27.5386 2.32762 26.1028C0.88901 24.6656 0 22.6806 0 20.487C0 18.2947 0.890316 16.3084 2.32762 14.8713C3.76622 13.4341 5.75312 12.5459 7.94889 12.5459C10.1434 12.5459 12.1316 13.4354 13.5702 14.8713C14.1994 15.4999 14.7242 16.2341 15.1158 17.0453V15.9211Z" fill="#261C0E"/>
<path d="M28.1829 20.1156C28.1816 19.5012 28.1803 18.8841 28.179 18.2644C28.0067 17.5654 27.6441 16.9405 27.1509 16.4484C26.4464 15.7454 25.4719 15.3093 24.3956 15.3093C23.3193 15.3093 22.3461 15.7441 21.6403 16.4484C20.9358 17.1514 20.4987 18.1238 20.4987 19.1978C20.4987 20.2719 20.9345 21.243 21.6403 21.9473C22.3448 22.6503 23.3193 23.0864 24.3956 23.0864C25.4719 23.0864 26.4464 22.6516 27.1509 21.9473C27.6493 21.45 28.012 20.8199 28.1829 20.1156ZM24.3956 14.6167C25.6637 14.6167 26.8104 15.1297 27.6415 15.9589C27.8384 16.1555 28.0172 16.369 28.175 16.5968C28.1646 12.5143 28.1502 3.95741 28.1502 -0.0704346H29.0009V23.5316H28.1868C28.1868 22.9523 28.1868 22.3691 28.1855 21.7833C28.025 22.0176 27.8424 22.2363 27.6415 22.4368C26.8104 23.266 25.6637 23.779 24.3956 23.779C23.1288 23.779 21.9808 23.266 21.1497 22.4368C20.3187 21.6075 19.8047 20.4632 19.8047 19.1978C19.8047 17.9325 20.3187 16.7882 21.1497 15.9589C21.9808 15.1297 23.1288 14.6167 24.3956 14.6167Z" fill="#261C0E"/>
<path d="M17.3828 5.89268L17.7762 4.37683L18.2923 5.89268H17.3828Z" fill="#261C0E"/>
<rect y="23.5018" width="14.0714" height="5.14286" fill="#FAFAFA"/>
<path d="M28.1243 24.2866C28.2003 24.2866 28.273 24.2946 28.3393 24.309C28.4057 24.3233 28.4687 24.3457 28.5253 24.376C28.6094 24.419 28.6757 24.478 28.7275 24.5546C28.7776 24.6296 28.8132 24.7205 28.831 24.8274L28.8358 24.8593H28.5674L28.5625 24.837C28.5496 24.7827 28.5318 24.7365 28.5059 24.6966C28.4817 24.6583 28.4493 24.6264 28.4121 24.6025C28.3733 24.5785 28.3313 24.5594 28.2827 24.5466C28.2342 24.5339 28.1792 24.5275 28.1194 24.5275C28.0499 24.5275 27.9852 24.5403 27.9269 24.5658C27.8687 24.5913 27.8154 24.6296 27.7668 24.6822C27.7199 24.7333 27.6827 24.7987 27.6601 24.8752C27.6358 24.9534 27.6229 25.0459 27.6229 25.1512C27.6229 25.2421 27.6326 25.3251 27.6536 25.3984C27.673 25.4718 27.7038 25.5356 27.7426 25.5915C27.7814 25.6457 27.8315 25.6872 27.8946 25.7143C27.9593 25.7414 28.0353 25.7558 28.1259 25.7558C28.1954 25.7558 28.2569 25.7462 28.3135 25.727C28.3701 25.7079 28.4202 25.6792 28.4639 25.6393C28.5075 25.601 28.5399 25.5516 28.5625 25.4894C28.5836 25.4319 28.5949 25.3649 28.5981 25.2884H28.1V25.0571H28.8552V25.952H28.6676L28.6224 25.7781C28.5981 25.8036 28.5738 25.8243 28.5528 25.8435C28.5189 25.8722 28.4865 25.8945 28.4574 25.9105C28.4073 25.9376 28.3507 25.9583 28.2892 25.9727C28.2261 25.987 28.1582 25.9934 28.0838 25.9934C27.9868 25.9934 27.8946 25.9775 27.8105 25.9472C27.7264 25.9153 27.6488 25.869 27.5776 25.8068L27.576 25.8052C27.4984 25.727 27.4418 25.6345 27.403 25.5261C27.3641 25.4192 27.3464 25.2979 27.3464 25.164C27.3464 25.03 27.3658 24.9087 27.4013 24.8003C27.4385 24.6918 27.4951 24.5977 27.5695 24.5163C27.6407 24.4398 27.7232 24.3823 27.8154 24.3425C27.9092 24.3074 28.011 24.2866 28.1243 24.2866ZM25.8924 24.3281H26.1383V25.9535H25.865V24.3281H25.8924ZM23.5571 25.4176C23.5604 25.4607 23.5652 25.4989 23.5765 25.5324C23.5863 25.5659 23.6008 25.5962 23.617 25.6202C23.6493 25.668 23.6946 25.7031 23.7528 25.727C23.8127 25.751 23.8854 25.7637 23.9728 25.7637C24.0116 25.7637 24.0504 25.7605 24.0844 25.7558C24.1199 25.751 24.1523 25.7414 24.1846 25.7318C24.2445 25.7111 24.2881 25.684 24.3172 25.6489C24.3447 25.6138 24.3593 25.5723 24.3593 25.5213C24.3593 25.4814 24.3528 25.4495 24.3415 25.4224C24.3302 25.3968 24.314 25.3761 24.2914 25.3618C24.2655 25.3458 24.2315 25.3299 24.1911 25.3139C24.1491 25.2995 24.1005 25.2852 24.0423 25.2724L23.8272 25.2246C23.7561 25.2086 23.6946 25.1927 23.6445 25.1751C23.5927 25.1576 23.5507 25.1384 23.5199 25.1177C23.465 25.0826 23.4245 25.0379 23.397 24.9853C23.3695 24.9327 23.3566 24.8705 23.3566 24.8019C23.3566 24.7285 23.3695 24.6599 23.3954 24.5993C23.4213 24.5371 23.4617 24.4828 23.5135 24.435C23.5652 24.3871 23.6299 24.3504 23.7027 24.3265C23.7755 24.3026 23.8596 24.2914 23.9534 24.2914C24.0391 24.2914 24.1183 24.301 24.1927 24.3217C24.2671 24.3425 24.3334 24.3744 24.3949 24.4158C24.4579 24.4589 24.5048 24.5131 24.5356 24.5817C24.5663 24.6487 24.5825 24.7285 24.5825 24.8194V24.8465H24.327L24.3237 24.8226C24.3189 24.7827 24.3108 24.7476 24.2995 24.7173C24.2881 24.687 24.2752 24.6631 24.259 24.6423C24.2299 24.6057 24.1895 24.5769 24.1394 24.5594C24.0876 24.5403 24.0229 24.5307 23.9469 24.5307C23.8854 24.5307 23.8337 24.5371 23.79 24.5498C23.748 24.561 23.7156 24.5785 23.6914 24.6025C23.6655 24.6264 23.6477 24.6519 23.6348 24.679C23.6218 24.7062 23.617 24.7349 23.617 24.7668C23.617 24.8003 23.6234 24.829 23.638 24.8529C23.6509 24.8768 23.672 24.896 23.7011 24.9119C23.7205 24.9215 23.7528 24.9343 23.7997 24.9486C23.8482 24.963 23.9081 24.9789 23.9825 24.9949L24.2057 25.0443C24.2606 25.0571 24.3108 25.0714 24.3528 25.089C24.3965 25.1065 24.4337 25.1257 24.4644 25.148C24.5194 25.1879 24.5598 25.2357 24.5873 25.2932C24.6148 25.3506 24.6278 25.416 24.6278 25.4894C24.6278 25.5803 24.61 25.6584 24.576 25.7254C24.542 25.7924 24.4903 25.8467 24.4208 25.8866C24.3544 25.9248 24.2817 25.9551 24.2057 25.9743C24.1296 25.9934 24.0472 26.003 23.9598 26.003C23.8579 26.003 23.7674 25.9902 23.6865 25.9647C23.6057 25.9392 23.5345 25.8993 23.4763 25.8467C23.4164 25.794 23.3728 25.7318 23.3437 25.6616C23.3146 25.5915 23.3016 25.5117 23.3016 25.424V25.3968H23.5588L23.5571 25.4176ZM20.9534 24.3281H22.142V24.5754H21.1911V24.9965H22.0693V25.2325H21.1911V25.7095H22.1582V25.952H20.9243V24.3265H20.9534V24.3281ZM18.9658 25.7159C19.0014 25.7159 19.0337 25.7143 19.0612 25.7111C19.0903 25.7079 19.1146 25.7015 19.1372 25.6951C19.176 25.6824 19.2116 25.6632 19.2423 25.6393C19.2747 25.6138 19.3022 25.5835 19.328 25.5468C19.3491 25.5165 19.3652 25.483 19.3798 25.4431C19.3943 25.4048 19.4057 25.3602 19.4154 25.3123C19.4202 25.2836 19.4251 25.2549 19.4267 25.2294C19.4299 25.2038 19.4299 25.1783 19.4299 25.1528C19.4299 25.0587 19.4202 24.9741 19.4008 24.9008C19.3814 24.829 19.3539 24.7668 19.3167 24.7157C19.2811 24.6663 19.2326 24.628 19.1744 24.6041C19.1146 24.5785 19.0434 24.5658 18.9609 24.5658H18.6051V25.7159H18.9658ZM18.3642 24.3281H19.0094C19.1226 24.3281 19.2229 24.3488 19.3119 24.3887C19.4008 24.4286 19.4768 24.4892 19.5399 24.569C19.5965 24.6407 19.6385 24.7237 19.666 24.8146C19.6935 24.9055 19.7081 25.006 19.7081 25.1177C19.7081 25.2022 19.7 25.2836 19.6838 25.3618C19.6677 25.4399 19.6434 25.5133 19.6094 25.5819C19.5512 25.7063 19.472 25.7988 19.3701 25.861C19.2698 25.9232 19.1485 25.9551 19.0062 25.9551H18.335V24.3297H18.3642V24.3281ZM15.8299 24.285C15.9334 24.285 16.0256 24.2994 16.1065 24.3265C16.189 24.3536 16.2585 24.3951 16.3183 24.4509C16.3766 24.5052 16.4218 24.5642 16.4542 24.6264C16.4865 24.6886 16.5059 24.7556 16.5124 24.8258L16.5156 24.8561H16.2536L16.2488 24.8354C16.2375 24.7875 16.2213 24.7444 16.1987 24.7062C16.176 24.6695 16.1485 24.636 16.1162 24.6088C16.0838 24.5817 16.0434 24.561 15.9981 24.5482C15.9512 24.5339 15.8962 24.5275 15.8348 24.5275C15.7604 24.5275 15.6925 24.5403 15.6342 24.5658C15.5744 24.5913 15.5226 24.6296 15.4774 24.6806C15.4321 24.7317 15.3981 24.7971 15.3739 24.8768C15.3512 24.9582 15.3383 25.0523 15.3383 25.1624C15.3383 25.2517 15.3496 25.333 15.3706 25.4048C15.3917 25.4766 15.4224 25.5388 15.4644 25.593C15.5049 25.6457 15.5566 25.6872 15.6164 25.7127C15.6779 25.7398 15.7491 25.7526 15.8315 25.7526C15.9059 25.7526 15.9722 25.7382 16.0288 25.7111C16.0855 25.684 16.1323 25.6409 16.1712 25.5851C16.1922 25.5548 16.21 25.5197 16.2262 25.4814C16.2423 25.4415 16.2553 25.3952 16.2666 25.3458L16.2714 25.3235H16.535L16.5318 25.3538C16.5221 25.4383 16.5011 25.5181 16.4687 25.5899C16.4364 25.6616 16.3927 25.727 16.3377 25.7861C16.2714 25.8562 16.1938 25.9089 16.1049 25.944C16.0159 25.9791 15.9156 25.9966 15.8057 25.9966C15.7102 25.9966 15.6213 25.9823 15.5404 25.9535C15.4596 25.9248 15.3868 25.8818 15.3205 25.8243C15.2348 25.7478 15.1701 25.6521 15.1264 25.534C15.0844 25.4176 15.0634 25.282 15.0634 25.1273C15.0634 25.0092 15.0795 24.9008 15.1119 24.8019C15.1442 24.703 15.1927 24.6152 15.2574 24.5387C15.327 24.4557 15.4111 24.3919 15.5081 24.3504C15.5987 24.3058 15.7086 24.285 15.8299 24.285ZM13.6159 24.3281H13.8617V25.9535H13.5884V24.3281H13.6159ZM10.9944 24.3281H11.2402V24.9773H12.0116V24.3281H12.2849V25.9535H12.0116V25.2198H11.2402V25.9535H10.9669V24.3281H10.9944ZM8.55392 24.3281H9.27036C9.34476 24.3281 9.41106 24.3393 9.4709 24.36C9.53236 24.3807 9.58573 24.4126 9.63101 24.4541C9.67791 24.4972 9.71187 24.5482 9.73613 24.6073C9.75877 24.6663 9.77009 24.7317 9.77009 24.8066C9.77009 24.8705 9.76039 24.9311 9.73937 24.9885C9.71834 25.0443 9.68761 25.097 9.64718 25.1448C9.60513 25.1943 9.55177 25.231 9.48869 25.2549C9.42562 25.2788 9.35284 25.2916 9.26875 25.2916H8.79651V25.9551H8.52481V24.3297H8.55392V24.3281ZM9.49678 24.8066C9.49678 24.754 9.48708 24.7093 9.46767 24.6742C9.44826 24.6408 9.42077 24.6136 9.38357 24.5961C9.36255 24.5865 9.33505 24.5785 9.30594 24.5738C9.27522 24.569 9.23964 24.5658 9.1992 24.5658H8.79813V25.0539H9.1992C9.24611 25.0539 9.28653 25.0491 9.32373 25.0395C9.35931 25.03 9.39165 25.0156 9.41915 24.9981C9.44502 24.9805 9.46443 24.9566 9.47737 24.9263C9.49031 24.8944 9.49678 24.8545 9.49678 24.8066ZM6.85581 25.2549L6.65204 24.6711L6.43533 25.2549H6.85581ZM6.54045 24.3281H6.80406C7.00298 24.8705 7.2019 25.4112 7.40244 25.9535H7.10648L6.94476 25.483H6.35446L6.18304 25.9535H5.90163C6.10702 25.4112 6.31565 24.8705 6.52104 24.3281H6.54045ZM4.2391 25.0475C4.28762 25.0475 4.33129 25.0427 4.36848 25.0332C4.40568 25.0236 4.43802 25.0108 4.4639 24.9917C4.48816 24.9757 4.50757 24.9518 4.5205 24.9199C4.53344 24.888 4.53991 24.8465 4.53991 24.7987C4.53991 24.7476 4.53021 24.7046 4.51242 24.6711C4.49463 24.6376 4.46713 24.612 4.43156 24.5945C4.41215 24.5849 4.38789 24.5769 4.3604 24.5722C4.3329 24.5674 4.30056 24.5642 4.2666 24.5642H3.76848V25.0459H4.2391V25.0475ZM3.52589 24.3281H4.26336C4.32482 24.3281 4.38304 24.3329 4.43317 24.3425C4.48492 24.352 4.53182 24.3648 4.57387 24.3839C4.65312 24.419 4.71457 24.4717 4.75501 24.5371C4.79544 24.6041 4.81484 24.6838 4.81484 24.7795C4.81484 24.829 4.80999 24.8736 4.79867 24.9151C4.78735 24.9566 4.77118 24.9933 4.75015 25.0268C4.72913 25.0587 4.70325 25.0874 4.67414 25.1129C4.65797 25.1273 4.64018 25.14 4.62077 25.1528C4.63371 25.1608 4.64665 25.1671 4.65959 25.1767C4.68546 25.1943 4.70649 25.215 4.72428 25.2373C4.74207 25.2613 4.75662 25.2916 4.76632 25.3267C4.77603 25.3618 4.78088 25.4032 4.78411 25.4511L4.7922 25.6616C4.79382 25.6904 4.79544 25.7159 4.79705 25.7366C4.80029 25.7573 4.8019 25.7749 4.80676 25.7892C4.81161 25.81 4.81969 25.8275 4.8294 25.8419C4.83748 25.8531 4.8488 25.8626 4.86013 25.8674L4.8763 25.8754V25.9567H4.5674L4.55932 25.9424C4.55447 25.9344 4.55123 25.9248 4.548 25.9137L4.53991 25.8818C4.53668 25.869 4.53506 25.8531 4.53344 25.8307L4.51565 25.491C4.51403 25.4447 4.50433 25.4048 4.48654 25.3745C4.47037 25.3458 4.44611 25.3235 4.41538 25.3075C4.39759 25.2995 4.37333 25.2932 4.34422 25.2884C4.31349 25.2836 4.2763 25.282 4.23425 25.282H3.7701V25.9551H3.4984V24.3297H3.52589V24.3281ZM1.48493 24.2866C1.56094 24.2866 1.63371 24.2946 1.70002 24.309C1.76633 24.3233 1.8294 24.3457 1.886 24.376C1.96848 24.419 2.03641 24.478 2.08816 24.5546C2.1383 24.6296 2.17387 24.7205 2.19166 24.8274L2.19652 24.8593H1.92805L1.9232 24.837C1.91026 24.7827 1.89247 24.7365 1.8666 24.6982C1.84234 24.6599 1.80999 24.628 1.7728 24.6041C1.73398 24.5801 1.69193 24.561 1.64342 24.5482C1.5949 24.5355 1.53991 24.5291 1.48008 24.5291C1.41053 24.5291 1.34584 24.5419 1.28762 24.5674C1.2294 24.5929 1.17603 24.6312 1.12751 24.6838C1.08061 24.7349 1.04503 24.8003 1.02078 24.8768C0.996517 24.955 0.983579 25.0475 0.983579 25.1528C0.983579 25.2437 0.993283 25.3267 1.01431 25.4C1.03371 25.4734 1.06444 25.5372 1.10326 25.593C1.14207 25.6473 1.19221 25.6888 1.25528 25.7159C1.31997 25.743 1.39598 25.7573 1.48654 25.7573C1.55609 25.7573 1.61754 25.7478 1.67415 25.7286C1.73075 25.7095 1.78088 25.6808 1.82455 25.6409C1.86821 25.6026 1.90056 25.5532 1.9232 25.491C1.94422 25.4335 1.95555 25.3665 1.95878 25.29H1.46067V25.0587H2.21592V25.9535H2.02832L1.98304 25.7797C1.95878 25.8052 1.93452 25.8259 1.9135 25.8451C1.87954 25.8738 1.84719 25.8961 1.81808 25.9121C1.76795 25.9392 1.71296 25.9599 1.64989 25.9743C1.58843 25.9886 1.51889 25.995 1.4445 25.995C1.34746 25.995 1.25528 25.9791 1.17118 25.9488C1.08708 25.9169 1.00946 25.8706 0.938297 25.8084L0.93668 25.8068C0.859052 25.7286 0.802447 25.6345 0.763633 25.5276C0.72482 25.4208 0.707031 25.2995 0.707031 25.1656C0.707031 25.0316 0.72482 24.9103 0.762017 24.8019C0.799214 24.6934 0.855816 24.5993 0.93021 24.5179C1.00137 24.4414 1.08385 24.3839 1.17603 24.3441C1.26983 24.3074 1.37334 24.2866 1.48493 24.2866ZM30.1377 24.3281H30.4078L31.1679 25.5308V24.3281H31.4283V25.9535H31.1437L30.3706 24.7508V25.9535H30.1086V24.3281H30.1377Z" fill="#261C0E"/>
</g>
</svg>
