<svg width="221" height="183" viewBox="0 0 221 183" fill="none" xmlns="http://www.w3.org/2000/svg">
<mask id="mask0_738_2166" style="mask-type:alpha" maskUnits="userSpaceOnUse" x="0" y="0" width="221" height="183">
<rect width="221" height="183" fill="#D9D9D9"/>
</mask>
<g mask="url(#mask0_738_2166)">
<path d="M128.622 46.9219H122.227V166.355H128.622V46.9219Z" fill="#261C0E"/>
<path d="M215.312 116.848V106.637H220.997V116.848H215.312ZM215.312 166.353V122.118H220.997V166.353H215.312Z" fill="#261C0E"/>
<path d="M106.292 112.493V0.710938H112.277V165.944H106.292V136.613C104.575 125.732 99.4253 115.998 91.9714 108.557C82.7366 99.3276 69.986 93.6211 55.8952 93.6211C41.8043 93.6211 29.0537 99.3276 19.819 108.557C10.5842 117.787 4.87442 130.53 4.87442 144.613C4.87442 158.696 10.5842 171.439 19.819 180.669C29.0537 189.898 41.8043 195.605 55.8952 195.605C68.453 195.605 79.946 191.073 88.8411 183.55H95.9829C95.7993 183.742 95.6065 183.935 95.4229 184.118C85.3069 194.229 71.3354 200.476 55.8952 200.476C40.4549 200.476 26.4834 194.219 16.3674 184.118C6.25136 174.008 0 160.044 0 144.613C0 129.191 6.26054 115.218 16.3674 105.108C26.4834 94.9973 40.4549 88.7494 55.8952 88.7494C71.3262 88.7494 85.3069 95.0064 95.4229 105.108C99.8475 109.53 103.538 114.695 106.292 120.401V112.493Z" fill="#261C0E"/>
<path d="M198.195 142.004C198.186 137.681 198.177 133.34 198.168 128.981C196.957 124.063 194.406 119.668 190.939 116.206C185.985 111.261 179.132 108.193 171.564 108.193C163.995 108.193 157.152 111.251 152.189 116.206C147.235 121.151 144.162 127.992 144.162 135.548C144.162 143.103 147.226 149.935 152.189 154.889C157.143 159.835 163.995 162.903 171.564 162.903C179.132 162.903 185.985 159.844 190.939 154.889C194.443 151.391 196.993 146.958 198.195 142.004ZM171.564 103.321C180.481 103.321 188.544 106.929 194.388 112.762C195.773 114.145 197.03 115.647 198.14 117.25C198.067 88.5304 197.966 28.3349 197.966 0H203.947V166.035H198.223C198.223 161.959 198.223 157.856 198.213 153.735C197.085 155.384 195.801 156.922 194.388 158.333C188.544 164.166 180.481 167.775 171.564 167.775C162.656 167.775 154.583 164.166 148.739 158.333C142.896 152.499 139.281 144.449 139.281 135.548C139.281 126.646 142.896 118.596 148.739 112.762C154.583 106.929 162.656 103.321 171.564 103.321Z" fill="#261C0E"/>
<path d="M122.227 41.9429L124.993 31.2793L128.622 41.9429H122.227Z" fill="#261C0E"/>
<rect y="165.82" width="98.9477" height="36.1787" fill="#FAFAFA"/>
<path d="M197.762 171.339C198.296 171.339 198.808 171.395 199.274 171.496C199.74 171.597 200.184 171.755 200.582 171.968C201.173 172.271 201.64 172.686 202.004 173.225C202.356 173.752 202.606 174.392 202.731 175.143L202.765 175.368H200.878L200.844 175.211C200.753 174.829 200.627 174.504 200.446 174.223C200.275 173.954 200.047 173.73 199.786 173.561C199.513 173.393 199.217 173.258 198.876 173.168C198.535 173.079 198.148 173.034 197.728 173.034C197.239 173.034 196.784 173.124 196.374 173.303C195.965 173.483 195.59 173.752 195.248 174.122C194.919 174.481 194.657 174.941 194.498 175.48C194.327 176.03 194.236 176.681 194.236 177.421C194.236 178.061 194.305 178.644 194.452 179.161C194.589 179.677 194.805 180.126 195.078 180.518C195.351 180.9 195.703 181.192 196.147 181.382C196.602 181.573 197.136 181.674 197.773 181.674C198.262 181.674 198.694 181.607 199.092 181.472C199.49 181.338 199.843 181.136 200.15 180.855C200.457 180.586 200.684 180.238 200.844 179.8C200.991 179.396 201.071 178.925 201.094 178.386H197.591V176.759H202.902V183.055H201.583L201.264 181.831C201.094 182.011 200.923 182.157 200.775 182.291C200.537 182.493 200.309 182.651 200.104 182.763C199.752 182.953 199.354 183.099 198.922 183.2C198.478 183.301 198 183.346 197.477 183.346C196.795 183.346 196.147 183.234 195.555 183.021C194.964 182.796 194.418 182.471 193.918 182.033L193.907 182.022C193.361 181.472 192.963 180.821 192.69 180.058C192.417 179.307 192.292 178.454 192.292 177.511C192.292 176.569 192.428 175.716 192.678 174.953C192.94 174.19 193.338 173.528 193.861 172.955C194.361 172.417 194.941 172.013 195.59 171.732C196.249 171.485 196.966 171.339 197.762 171.339ZM182.068 171.631H183.797V183.066H181.875V171.631H182.068ZM165.647 179.295C165.669 179.598 165.703 179.868 165.783 180.103C165.851 180.339 165.954 180.552 166.067 180.72C166.295 181.057 166.613 181.304 167.023 181.472C167.443 181.641 167.955 181.73 168.569 181.73C168.842 181.73 169.115 181.708 169.354 181.674C169.604 181.641 169.832 181.573 170.059 181.506C170.48 181.36 170.787 181.169 170.992 180.922C171.185 180.676 171.287 180.384 171.287 180.025C171.287 179.744 171.242 179.52 171.162 179.329C171.082 179.149 170.969 179.004 170.81 178.903C170.628 178.79 170.389 178.678 170.104 178.566C169.809 178.465 169.468 178.364 169.058 178.274L167.546 177.938C167.045 177.825 166.613 177.713 166.261 177.59C165.897 177.466 165.601 177.332 165.385 177.186C164.998 176.939 164.714 176.625 164.521 176.254C164.327 175.884 164.236 175.446 164.236 174.964C164.236 174.448 164.327 173.965 164.509 173.539C164.691 173.101 164.976 172.72 165.34 172.383C165.703 172.046 166.158 171.788 166.67 171.62C167.182 171.452 167.773 171.373 168.433 171.373C169.036 171.373 169.593 171.44 170.116 171.586C170.639 171.732 171.105 171.957 171.537 172.248C171.981 172.551 172.311 172.933 172.527 173.415C172.743 173.887 172.857 174.448 172.857 175.087V175.278H171.06L171.037 175.11C171.003 174.829 170.946 174.582 170.866 174.369C170.787 174.156 170.696 173.988 170.582 173.842C170.377 173.584 170.093 173.382 169.741 173.258C169.377 173.124 168.922 173.056 168.387 173.056C167.955 173.056 167.591 173.101 167.284 173.191C166.988 173.269 166.761 173.393 166.59 173.561C166.408 173.73 166.283 173.909 166.192 174.1C166.101 174.291 166.067 174.493 166.067 174.717C166.067 174.953 166.113 175.155 166.215 175.323C166.306 175.491 166.454 175.626 166.659 175.738C166.795 175.805 167.023 175.895 167.352 175.996C167.694 176.097 168.114 176.209 168.637 176.322L170.207 176.67C170.593 176.759 170.946 176.86 171.242 176.984C171.549 177.107 171.81 177.242 172.026 177.399C172.413 177.679 172.697 178.016 172.891 178.42C173.084 178.824 173.175 179.284 173.175 179.8C173.175 180.44 173.05 180.99 172.811 181.461C172.572 181.932 172.208 182.314 171.719 182.594C171.253 182.864 170.741 183.077 170.207 183.212C169.672 183.346 169.092 183.414 168.478 183.414C167.762 183.414 167.125 183.324 166.556 183.144C165.988 182.965 165.487 182.684 165.078 182.314C164.657 181.944 164.35 181.506 164.145 181.012C163.941 180.518 163.85 179.957 163.85 179.34V179.149H165.658L165.647 179.295ZM147.337 171.631H155.696V173.37H149.009V176.333H155.184V177.994H149.009V181.349H155.81V183.055H147.133V171.62H147.337V171.631ZM133.361 181.394C133.611 181.394 133.839 181.383 134.032 181.36C134.237 181.338 134.407 181.293 134.566 181.248C134.839 181.158 135.089 181.023 135.306 180.855C135.533 180.676 135.726 180.462 135.908 180.204C136.056 179.991 136.17 179.755 136.272 179.475C136.375 179.206 136.454 178.891 136.522 178.555C136.557 178.353 136.591 178.151 136.602 177.971C136.625 177.792 136.625 177.612 136.625 177.433C136.625 176.771 136.556 176.176 136.42 175.66C136.284 175.155 136.09 174.717 135.829 174.358C135.578 174.01 135.237 173.741 134.828 173.572C134.407 173.393 133.907 173.303 133.327 173.303H130.825V181.394H133.361ZM129.13 171.631H133.668C134.464 171.631 135.169 171.777 135.795 172.058C136.42 172.338 136.955 172.764 137.398 173.326C137.796 173.83 138.092 174.414 138.285 175.054C138.478 175.693 138.581 176.4 138.581 177.186C138.581 177.78 138.524 178.353 138.41 178.903C138.296 179.452 138.126 179.969 137.887 180.451C137.478 181.326 136.92 181.977 136.204 182.415C135.499 182.853 134.646 183.077 133.645 183.077H128.926V171.642H129.13V171.631ZM111.31 171.328C112.038 171.328 112.686 171.429 113.255 171.62C113.835 171.811 114.324 172.102 114.745 172.495C115.154 172.877 115.472 173.292 115.7 173.73C115.927 174.167 116.064 174.638 116.109 175.132L116.132 175.345H114.29L114.256 175.2C114.176 174.863 114.062 174.56 113.903 174.291C113.744 174.032 113.551 173.797 113.323 173.606C113.096 173.415 112.811 173.269 112.493 173.18C112.163 173.079 111.776 173.034 111.344 173.034C110.821 173.034 110.344 173.124 109.934 173.303C109.513 173.483 109.149 173.752 108.831 174.111C108.513 174.47 108.274 174.93 108.103 175.491C107.944 176.064 107.853 176.726 107.853 177.5C107.853 178.128 107.933 178.701 108.08 179.206C108.228 179.711 108.444 180.148 108.74 180.53C109.024 180.9 109.388 181.192 109.809 181.371C110.241 181.562 110.742 181.652 111.322 181.652C111.845 181.652 112.311 181.551 112.709 181.36C113.107 181.169 113.437 180.866 113.71 180.474C113.858 180.26 113.983 180.013 114.096 179.744C114.21 179.464 114.301 179.138 114.381 178.79L114.415 178.633H116.268L116.246 178.846C116.177 179.441 116.03 180.002 115.802 180.507C115.575 181.012 115.268 181.472 114.881 181.887C114.415 182.381 113.869 182.752 113.243 182.998C112.618 183.245 111.913 183.369 111.14 183.369C110.469 183.369 109.843 183.268 109.275 183.066C108.706 182.864 108.194 182.561 107.728 182.157C107.125 181.618 106.67 180.945 106.363 180.115C106.068 179.295 105.92 178.341 105.92 177.253C105.92 176.423 106.033 175.66 106.261 174.964C106.488 174.268 106.83 173.651 107.284 173.112C107.773 172.529 108.365 172.08 109.047 171.788C109.684 171.474 110.457 171.328 111.31 171.328ZM95.7417 171.631H97.4702V183.066H95.5483V171.631H95.7417ZM77.3073 171.631H79.0359V176.198H84.4604V171.631H86.3823V183.066H84.4604V177.904H79.0359V183.066H77.114V171.631H77.3073ZM60.1467 171.631H65.1846C65.7077 171.631 66.1739 171.71 66.5947 171.856C67.0268 172.001 67.4021 172.226 67.7206 172.518C68.0504 172.821 68.2892 173.18 68.4598 173.595C68.619 174.01 68.6986 174.47 68.6986 174.998C68.6986 175.446 68.6303 175.873 68.4825 176.277C68.3346 176.67 68.1186 177.04 67.8343 177.376C67.5386 177.724 67.1633 177.982 66.7198 178.151C66.2763 178.319 65.7645 178.409 65.1732 178.409H61.8525V183.077H59.942V171.642H60.1467V171.631ZM66.7767 174.998C66.7767 174.627 66.7084 174.313 66.572 174.066C66.4355 173.83 66.2422 173.64 65.9806 173.516C65.8328 173.449 65.6394 173.393 65.4347 173.359C65.2187 173.326 64.9685 173.303 64.6842 173.303H61.8639V176.737H64.6842C65.014 176.737 65.2983 176.703 65.5598 176.636C65.81 176.569 66.0374 176.468 66.2308 176.344C66.4127 176.221 66.5492 176.052 66.6402 175.839C66.7312 175.615 66.7767 175.334 66.7767 174.998ZM48.2059 178.151L46.773 174.044L45.2491 178.151H48.2059ZM45.9883 171.631H47.8419C49.2407 175.446 50.6395 179.25 52.0497 183.066H49.9685L48.8313 179.755H44.6805L43.475 183.066H41.4962C42.9405 179.25 44.4075 175.446 45.8518 171.631H45.9883ZM29.8056 176.692C30.1468 176.692 30.4539 176.658 30.7154 176.591C30.977 176.524 31.2044 176.434 31.3864 176.299C31.557 176.187 31.6934 176.019 31.7844 175.794C31.8754 175.57 31.9209 175.278 31.9209 174.941C31.9209 174.582 31.8526 174.279 31.7275 174.044C31.6024 173.808 31.4091 173.629 31.1589 173.505C31.0225 173.438 30.8519 173.382 30.6585 173.348C30.4652 173.314 30.2378 173.292 29.999 173.292H26.4963V176.681H29.8056V176.692ZM24.7905 171.631H29.9762C30.4084 171.631 30.8178 171.665 31.1703 171.732C31.5342 171.799 31.864 171.889 32.1597 172.024C32.7169 172.271 33.1491 172.641 33.4334 173.101C33.7177 173.572 33.8541 174.133 33.8541 174.807C33.8541 175.155 33.82 175.469 33.7404 175.761C33.6608 176.052 33.5471 176.31 33.3993 176.546C33.2514 176.77 33.0695 176.972 32.8648 177.152C32.751 177.253 32.6259 177.343 32.4895 177.433C32.5805 177.489 32.6714 177.534 32.7624 177.601C32.9444 177.724 33.0922 177.87 33.2173 178.027C33.3424 178.196 33.4447 178.409 33.513 178.656C33.5812 178.903 33.6153 179.194 33.6381 179.531L33.6949 181.012C33.7063 181.214 33.7177 181.394 33.729 181.54C33.7518 181.685 33.7632 181.809 33.7973 181.91C33.8314 182.056 33.8882 182.179 33.9565 182.28C34.0133 182.359 34.0929 182.426 34.1726 182.46L34.2863 182.516V183.088H32.1142L32.0573 182.987C32.0232 182.931 32.0005 182.864 31.9777 182.785L31.9209 182.561C31.8981 182.471 31.8867 182.359 31.8754 182.202L31.7503 179.812C31.7389 179.486 31.6707 179.206 31.5456 178.992C31.4319 178.79 31.2613 178.633 31.0452 178.521C30.9201 178.465 30.7495 178.42 30.5448 178.386C30.3287 178.353 30.0672 178.341 29.7715 178.341H26.5077V183.077H24.5972V171.642H24.7905V171.631ZM10.4388 171.339C10.9733 171.339 11.485 171.395 11.9513 171.496C12.4175 171.597 12.8611 171.755 13.2591 171.968C13.8391 172.271 14.3167 172.686 14.6806 173.225C15.0331 173.752 15.2833 174.392 15.4084 175.143L15.4425 175.368H13.5547L13.5206 175.211C13.4297 174.829 13.3046 174.504 13.1226 174.234C12.952 173.965 12.7246 173.741 12.463 173.572C12.1901 173.404 11.8944 173.269 11.5532 173.18C11.2121 173.09 10.8254 173.045 10.4047 173.045C9.91566 173.045 9.46077 173.135 9.05137 173.314C8.64197 173.494 8.26668 173.763 7.92551 174.133C7.59572 174.493 7.34553 174.953 7.17494 175.491C7.00436 176.041 6.91339 176.692 6.91339 177.433C6.91339 178.072 6.98162 178.656 7.12946 179.172C7.26593 179.688 7.482 180.137 7.75494 180.53C8.02787 180.911 8.38041 181.203 8.82393 181.394C9.27881 181.584 9.8133 181.685 10.4501 181.685C10.9391 181.685 11.3713 181.618 11.7693 181.484C12.1673 181.349 12.5199 181.147 12.8269 180.866C13.134 180.597 13.3614 180.249 13.5206 179.812C13.6685 179.408 13.7481 178.936 13.7708 178.398H10.2682V176.771H15.579V183.066H14.2598L13.9414 181.843C13.7708 182.022 13.6002 182.168 13.4524 182.303C13.2136 182.505 12.9861 182.662 12.7814 182.774C12.4289 182.965 12.0423 183.111 11.5987 183.212C11.1666 183.313 10.6776 183.357 10.1545 183.357C9.47214 183.357 8.82392 183.245 8.23257 183.032C7.64121 182.808 7.09534 182.482 6.59497 182.045L6.5836 182.033C6.03773 181.484 5.6397 180.821 5.36677 180.07C5.09383 179.318 4.96875 178.465 4.96875 177.522C4.96875 176.58 5.09384 175.727 5.3554 174.964C5.61696 174.201 6.01498 173.539 6.5381 172.966C7.03848 172.428 7.61847 172.024 8.26668 171.743C8.92627 171.485 9.65409 171.339 10.4388 171.339ZM211.92 171.631H213.819L219.164 180.092V171.631H220.995V183.066H218.994L213.558 174.605V183.066H211.715V171.631H211.92Z" fill="#261C0E"/>
</g>
</svg>
